<svg width="27" height="25" viewBox="0 0 27 25" fill="none" xmlns="http://www.w3.org/2000/svg">
<path d="M19.0288 0.768512L26.231 7.9707C26.4697 8.2095 26.6038 8.5332 26.6038 8.8708C26.6038 9.2084 26.4697 9.5322 26.231 9.7709L16.3272 19.6748L13.6281 20.5749L11.8266 22.3751C11.5878 22.6138 11.2641 22.7479 10.9265 22.7479C10.5889 22.7479 10.2651 22.6138 10.0264 22.3751L4.6244 16.9731C4.3857 16.7344 4.2516 16.4106 4.2516 16.073C4.2516 15.7354 4.3857 15.4117 4.6244 15.1729L6.4246 13.3727L7.3247 10.6723L17.2286 0.768512C17.4673 0.529832 17.7911 0.395752 18.1287 0.395752C18.4663 0.395752 18.79 0.529832 19.0288 0.768512ZM19.9289 5.2704L11.8266 13.3727L13.6268 15.1729L21.7291 7.0706L19.9289 5.2704ZM4.1737 19.2241L7.7754 22.8258L5.9752 24.626L0.573242 22.8258L4.1737 19.2241Z" fill="black"/>
</svg>
