<svg width="26" height="26" viewBox="0 0 26 26" fill="none" xmlns="http://www.w3.org/2000/svg">
<path d="M18.7292 14.5301L14.2732 17.5003V22.0786L22.1629 16.8192L18.7292 14.5301ZM16.4337 12.9997L13 10.7106L9.56641 12.9997L13 15.2889L16.4337 12.9997ZM23.1852 11.5598L21.0247 12.9997L23.1852 14.4397V11.5611V11.5598ZM22.1629 9.1803L14.2732 3.9209V8.4992L18.7292 11.4694L22.1629 9.1803ZM7.2709 11.4694L11.7269 8.4992V3.9209L3.8372 9.1803L7.2709 11.4694ZM3.8372 16.8192L11.7269 22.0786V17.5003L7.2709 14.5301L3.8372 16.8192ZM2.81485 14.4397L4.9754 12.9997L2.81485 11.5598V14.4397ZM0.268555 9.1803C0.268525 8.9707 0.320225 8.7644 0.419055 8.5796C0.517885 8.3949 0.660795 8.2373 0.835115 8.121L12.2934 0.482146C12.5027 0.342556 12.7485 0.268066 13 0.268066C13.2515 0.268066 13.4974 0.342556 13.7066 0.482146L25.165 8.121C25.3393 8.2373 25.4822 8.3949 25.581 8.5796C25.6799 8.7644 25.7315 8.9707 25.7315 9.1803V16.8192C25.7315 17.0287 25.6799 17.2351 25.581 17.4198C25.4822 17.6046 25.3393 17.7621 25.165 17.8784L13.7066 25.5173C13.4974 25.6569 13.2515 25.7314 13 25.7314C12.7485 25.7314 12.5027 25.6569 12.2934 25.5173L0.835115 17.8784C0.660795 17.7621 0.517885 17.6046 0.419055 17.4198C0.320225 17.2351 0.268525 17.0287 0.268555 16.8192V9.1803Z" fill="black"/>
</svg>
