<svg width="24" height="24" viewBox="0 0 24 24" fill="none" xmlns="http://www.w3.org/2000/svg">
<path d="M11.9998 3.088V20.9121H20.9119V3.088H11.9998ZM1.81465 0.541748H22.185C22.5227 0.541748 22.8465 0.675879 23.0853 0.914639C23.324 1.15341 23.4582 1.47724 23.4582 1.8149V22.1853C23.4582 22.5229 23.324 22.8468 23.0853 23.0855C22.8465 23.3243 22.5227 23.4584 22.185 23.4584H1.81465C1.47699 23.4584 1.15316 23.3243 0.914404 23.0855C0.675644 22.8468 0.541504 22.5229 0.541504 22.1853V1.8149C0.541504 1.47724 0.675644 1.15341 0.914404 0.914639C1.15316 0.675879 1.47699 0.541748 1.81465 0.541748Z" fill="black"/>
</svg>
