<svg width="13" height="12" viewBox="0 0 13 12" fill="none" xmlns="http://www.w3.org/2000/svg">
<path d="M2.67576 1.33393C2.67558 1.68753 2.53446 2.02658 2.28343 2.27649C2.03241 2.5264 1.69204 2.6667 1.33721 2.66652C0.98238 2.66634 0.64216 2.5257 0.39138 2.27554C0.14061 2.02539 -0.000179828 1.6862 1.72385e-07 1.33259C0.000180172 0.97899 0.1413 0.63994 0.39233 0.39003C0.64336 0.14012 0.98372 -0.000179827 1.33855 1.72987e-07C1.69338 0.000180173 2.0336 0.14081 2.28438 0.39097C2.53515 0.64113 2.67594 0.98032 2.67576 1.33393ZM2.7159 3.6538H0.0401403V12H2.7159V3.6538ZM6.9436 3.6538H4.2812V12H6.9168V7.6202C6.9168 5.1804 10.1077 4.9537 10.1077 7.6202V12H12.75V6.7136C12.75 2.60052 8.0273 2.75385 6.9168 4.7737L6.9436 3.6538Z" fill="black"/>
</svg>
