<svg width="16" height="16" viewBox="0 0 16 16" fill="none" xmlns="http://www.w3.org/2000/svg">
<path d="M8 5.75C7.4033 5.75 6.831 5.98705 6.409 6.409C5.98705 6.831 5.75 7.4033 5.75 8C5.75 8.5967 5.98705 9.169 6.409 9.591C6.831 10.0129 7.4033 10.25 8 10.25C8.5967 10.25 9.169 10.0129 9.591 9.591C10.0129 9.169 10.25 8.5967 10.25 8C10.25 7.4033 10.0129 6.831 9.591 6.409C9.169 5.98705 8.5967 5.75 8 5.75ZM8 4.25C8.9946 4.25 9.9484 4.64509 10.6517 5.34835C11.3549 6.0516 11.75 7.0054 11.75 8C11.75 8.9946 11.3549 9.9484 10.6517 10.6517C9.9484 11.3549 8.9946 11.75 8 11.75C7.0054 11.75 6.0516 11.3549 5.34835 10.6517C4.64509 9.9484 4.25 8.9946 4.25 8C4.25 7.0054 4.64509 6.0516 5.34835 5.34835C6.0516 4.64509 7.0054 4.25 8 4.25ZM12.875 4.0625C12.875 4.31114 12.7762 4.5496 12.6004 4.72541C12.4246 4.90123 12.1861 5 11.9375 5C11.6889 5 11.4504 4.90123 11.2746 4.72541C11.0988 4.5496 11 4.31114 11 4.0625C11 3.81386 11.0988 3.5754 11.2746 3.39959C11.4504 3.22377 11.6889 3.125 11.9375 3.125C12.1861 3.125 12.4246 3.22377 12.6004 3.39959C12.7762 3.5754 12.875 3.81386 12.875 4.0625ZM8 2C6.1445 2 5.8415 2.00525 4.97825 2.0435C4.39025 2.07125 3.99575 2.15 3.62975 2.2925C3.30425 2.4185 3.0695 2.56925 2.81975 2.81975C2.58501 3.04655 2.40451 3.32344 2.29175 3.62975C2.14925 3.99725 2.0705 4.391 2.0435 4.97825C2.0045 5.80625 2 6.0957 2 8C2 9.8555 2.00525 10.1585 2.0435 11.0217C2.07125 11.609 2.15 12.0043 2.29175 12.3695C2.41925 12.6958 2.56925 12.9305 2.81825 13.1795C3.071 13.4315 3.30575 13.5822 3.62825 13.7067C3.99875 13.85 4.39325 13.9295 4.97825 13.9565C5.80625 13.9955 6.0957 14 8 14C9.8555 14 10.1585 13.9948 11.0217 13.9565C11.6082 13.9288 12.0035 13.85 12.3695 13.7083C12.6943 13.5815 12.9305 13.4307 13.1795 13.1818C13.4323 12.929 13.583 12.6943 13.7075 12.3717C13.85 12.002 13.9295 11.6067 13.9565 11.0217C13.9955 10.1937 14 9.9043 14 8C14 6.1445 13.9948 5.8415 13.9565 4.97825C13.9288 4.39175 13.85 3.99575 13.7075 3.62975C13.5945 3.32375 13.4143 3.04697 13.1803 2.81975C12.9536 2.58488 12.6766 2.40438 12.3702 2.29175C12.0027 2.14925 11.6082 2.0705 11.0217 2.0435C10.1937 2.0045 9.9043 2 8 2ZM8 0.5C10.0378 0.5 10.292 0.5075 11.0915 0.545C11.8903 0.5825 12.434 0.70775 12.9125 0.89375C13.4075 1.08425 13.8245 1.34225 14.2415 1.7585C14.6229 2.13342 14.918 2.58694 15.1063 3.0875C15.2915 3.56525 15.4175 4.10975 15.455 4.9085C15.4903 5.708 15.5 5.96225 15.5 8C15.5 10.0378 15.4925 10.292 15.455 11.0915C15.4175 11.8903 15.2915 12.434 15.1063 12.9125C14.9185 13.4133 14.6233 13.867 14.2415 14.2415C13.8665 14.6227 13.413 14.9178 12.9125 15.1063C12.4347 15.2915 11.8903 15.4175 11.0915 15.455C10.292 15.4903 10.0378 15.5 8 15.5C5.96225 15.5 5.708 15.4925 4.9085 15.455C4.10975 15.4175 3.566 15.2915 3.0875 15.1063C2.58674 14.9184 2.13315 14.6232 1.7585 14.2415C1.37705 13.8666 1.08195 13.4131 0.89375 12.9125C0.70775 12.4347 0.5825 11.8903 0.545 11.0915C0.50975 10.292 0.5 10.0378 0.5 8C0.5 5.96225 0.5075 5.708 0.545 4.9085C0.5825 4.109 0.70775 3.566 0.89375 3.0875C1.08143 2.58663 1.3766 2.13299 1.7585 1.7585C2.13325 1.37692 2.58682 1.0818 3.0875 0.89375C3.566 0.70775 4.109 0.5825 4.9085 0.545C5.708 0.50975 5.96225 0.5 8 0.5Z" fill="black"/>
</svg>
