<svg width="16" height="14" viewBox="0 0 16 14" fill="none" xmlns="http://www.w3.org/2000/svg">
<path d="M15.6217 2.24219C15.0491 2.49546 14.4419 2.66179 13.8202 2.73569C14.4755 2.34376 14.966 1.72695 15.2002 1.00019C14.5852 1.36619 13.911 1.62269 13.2082 1.76144C12.7362 1.25637 12.1105 0.92141 11.4284 0.80863C10.7464 0.69584 10.0462 0.81156 9.4367 1.13778C8.8272 1.464 8.3425 1.98245 8.0581 2.61253C7.7736 3.24262 7.7053 3.94902 7.8637 4.62194C6.6166 4.55943 5.39647 4.23533 4.28269 3.67069C3.1689 3.10604 2.18632 2.31347 1.39872 1.34444C1.11994 1.82328 0.973443 2.36761 0.974223 2.92169C0.974223 4.00919 1.52772 4.96994 2.36922 5.5324C1.87123 5.5168 1.3842 5.3823 0.948723 5.1402V5.1792C0.948873 5.9035 1.1995 6.6054 1.65811 7.166C2.11672 7.7266 2.75508 8.1113 3.46497 8.2549C3.00268 8.3802 2.51795 8.3987 2.04747 8.3089C2.24762 8.9324 2.63773 9.4776 3.16317 9.8683C3.68861 10.259 4.32307 10.4755 4.97772 10.4877C4.32708 10.9987 3.58211 11.3764 2.78538 11.5993C1.98866 11.8222 1.15582 11.8859 0.334473 11.7867C1.76825 12.7088 3.4373 13.1983 5.14197 13.1967C10.9117 13.1967 14.067 8.4169 14.067 4.27169C14.067 4.13669 14.0632 4.00019 14.0572 3.86669C14.6714 3.42281 15.2014 2.87295 15.6225 2.24294L15.6217 2.24219Z" fill="black"/>
</svg>
